HIERARCHY
ROOT Hips
{
	OFFSET 0.000000 35.082581 0.000000
	CHANNELS 6 Xposition Yposition Zposition Xrotation Yrotation Zrotation 
	JOINT Spine
	{
		OFFSET 0.000000 6.876099 0.125700
		CHANNELS 3 Xrotation Yrotation Zrotation
		JOINT Spine1
		{
			OFFSET 0.000000 5.730043 0.104720
			CHANNELS 3 Xrotation Yrotation Zrotation
			JOINT Spine1_split
			{
				OFFSET 0.000000 5.730043 0.104720
				CHANNELS 3 Xrotation Yrotation Zrotation
				JOINT Spine2
				{
					OFFSET 0.000000 5.730043 0.104720
					CHANNELS 3 Xrotation Yrotation Zrotation
					JOINT Neck
					{
						OFFSET 0.000000 10.314075 0.188496
						CHANNELS 3 Xrotation Yrotation Zrotation
						JOINT Head
						{
							OFFSET 0.000000 7.643700 -2.377400
							CHANNELS 3 Xrotation Yrotation Zrotation
							JOINT HeadTop_End
							{
								OFFSET 0.000000 43.788605 -13.619600
								CHANNELS 3 Xrotation Yrotation Zrotation
								End Site
								{
									OFFSET 0.000000 0.000000 0.000000
								}
							}
						}
					}
					JOINT LeftShoulder
					{
						OFFSET 2.196100 4.412489 0.087492
						CHANNELS 3 Xrotation Yrotation Zrotation
						JOINT LeftShoulder_split
						{
							OFFSET 2.196100 4.412489 0.087492
							CHANNELS 3 Xrotation Yrotation Zrotation
							JOINT LeftArm
							{
								OFFSET 8.771219 -2.981674 -0.026999
								CHANNELS 3 Xrotation Yrotation Zrotation
								JOINT LeftForeArm
								{
									OFFSET 8.512804 0.000000 -0.000000
									CHANNELS 3 Xrotation Yrotation Zrotation
									JOINT LeftHand
									{
										OFFSET 18.484802 0.000000 -0.000000
										CHANNELS 3 Xrotation Yrotation Zrotation
										JOINT LeftHandThumb1
										{
											OFFSET 2.499420 -1.158070 2.653252
											CHANNELS 3 Xrotation Yrotation Zrotation
											JOINT LeftHandThumb2
											{
												OFFSET 2.370079 -1.368366 1.368366
												CHANNELS 3 Xrotation Yrotation Zrotation
												JOINT LeftHandThumb3
												{
													OFFSET 2.676727 -1.545410 1.545409
													CHANNELS 3 Xrotation Yrotation Zrotation
													JOINT LeftHandThumb4
													{
														OFFSET 1.692226 -0.977005 0.977007
														CHANNELS 3 Xrotation Yrotation Zrotation
														End Site
														{
															OFFSET 0.000000 0.000000 0.000000
														}
													}
												}
											}
										}
										JOINT LeftHandIndex1
										{
											OFFSET 7.924831 -0.457527 2.345128
											CHANNELS 3 Xrotation Yrotation Zrotation
											JOINT LeftHandIndex2
											{
												OFFSET 3.643303 0.000000 0.000000
												CHANNELS 3 Xrotation Yrotation Zrotation
												JOINT LeftHandIndex3
												{
													OFFSET 3.810799 0.000000 0.000000
													CHANNELS 3 Xrotation Yrotation Zrotation
													JOINT LeftHandIndex4
													{
														OFFSET 2.403702 0.000000 0.000000
														CHANNELS 3 Xrotation Yrotation Zrotation
														End Site
														{
															OFFSET 0.000000 0.000000 0.000000
														}
													}
												}
											}
										}
										JOINT LeftHandMiddle1
										{
											OFFSET 8.563995 0.000000 -0.000000
											CHANNELS 3 Xrotation Yrotation Zrotation
											JOINT LeftHandMiddle2
											{
												OFFSET 3.861618 0.000000 0.000000
												CHANNELS 3 Xrotation Yrotation Zrotation
												JOINT LeftHandMiddle3
												{
													OFFSET 3.701603 0.000000 0.000000
													CHANNELS 3 Xrotation Yrotation Zrotation
													JOINT LeftHandMiddle4
													{
														OFFSET 2.322544 0.000000 0.000000
														CHANNELS 3 Xrotation Yrotation Zrotation
														End Site
														{
															OFFSET 0.000000 0.000000 0.000000
														}
													}
												}
											}
										}
										JOINT LeftHandRing1
										{
											OFFSET 8.426460 -0.424637 -3.286992
											CHANNELS 3 Xrotation Yrotation Zrotation
											JOINT LeftHandRing2
											{
												OFFSET 3.126408 0.000000 0.000000
												CHANNELS 3 Xrotation Yrotation Zrotation
												JOINT LeftHandRing3
												{
													OFFSET 3.085026 0.000000 0.000000
													CHANNELS 3 Xrotation Yrotation Zrotation
													JOINT LeftHandRing4
													{
														OFFSET 1.644005 0.000000 0.000000
														CHANNELS 3 Xrotation Yrotation Zrotation
														End Site
														{
															OFFSET 0.000000 0.000000 0.000000
														}
													}
												}
											}
										}
									}
								}
							}
						}
					}
					JOINT RightShoulder
					{
						OFFSET -2.196100 4.412496 0.070690
						CHANNELS 3 Xrotation Yrotation Zrotation
						JOINT RightShoulder_split
						{
							OFFSET -2.196100 4.412496 0.070690
							CHANNELS 3 Xrotation Yrotation Zrotation
							JOINT RightArm
							{
								OFFSET -8.771282 -2.981682 -0.094208
								CHANNELS 3 Xrotation Yrotation Zrotation
								JOINT RightForeArm
								{
									OFFSET -8.494598 0.000000 0.000000
									CHANNELS 3 Xrotation Yrotation Zrotation
									JOINT RightHand
									{
										OFFSET -18.483803 0.000000 0.000001
										CHANNELS 3 Xrotation Yrotation Zrotation
										JOINT RightHandThumb1
										{
											OFFSET -2.527351 -1.008072 2.575253
											CHANNELS 3 Xrotation Yrotation Zrotation
											JOINT RightHandThumb2
											{
												OFFSET -2.321518 -1.340328 1.340329
												CHANNELS 3 Xrotation Yrotation Zrotation
												JOINT RightHandThumb3
												{
													OFFSET -2.657753 -1.534454 1.534455
													CHANNELS 3 Xrotation Yrotation Zrotation
													JOINT RightHandThumb4
													{
														OFFSET -1.807510 -1.043568 1.043567
														CHANNELS 3 Xrotation Yrotation Zrotation
														End Site
														{
															OFFSET 0.000000 0.000000 0.000000
														}
													}
												}
											}
										}
										JOINT RightHandIndex1
										{
											OFFSET -8.811420 0.015533 2.887987
											CHANNELS 3 Xrotation Yrotation Zrotation
											JOINT RightHandIndex2
											{
												OFFSET -3.537502 0.000000 0.000000
												CHANNELS 3 Xrotation Yrotation Zrotation
												JOINT RightHandIndex3
												{
													OFFSET -3.356201 0.000000 0.000000
													CHANNELS 3 Xrotation Yrotation Zrotation
													JOINT RightHandIndex4
													{
														OFFSET -1.933098 0.000000 0.000000
														CHANNELS 3 Xrotation Yrotation Zrotation
														End Site
														{
															OFFSET 0.000000 0.000000 0.000000
														}
													}
												}
											}
										}
										JOINT RightHandMiddle1
										{
											OFFSET -8.178135 0.000000 0.000000
											CHANNELS 3 Xrotation Yrotation Zrotation
											JOINT RightHandMiddle2
											{
												OFFSET -3.901302 0.000000 0.000000
												CHANNELS 3 Xrotation Yrotation Zrotation
												JOINT RightHandMiddle3
												{
													OFFSET -3.909599 0.000000 0.000000
													CHANNELS 3 Xrotation Yrotation Zrotation
													JOINT RightHandMiddle4
													{
														OFFSET -2.376003 0.000000 0.000000
														CHANNELS 3 Xrotation Yrotation Zrotation
														End Site
														{
															OFFSET 0.000000 0.000000 0.000000
														}
													}
												}
											}
										}
										JOINT RightHandRing1
										{
											OFFSET -7.559013 0.014137 -2.865403
											CHANNELS 3 Xrotation Yrotation Zrotation
											JOINT RightHandRing2
											{
												OFFSET -3.449306 0.000000 0.000000
												CHANNELS 3 Xrotation Yrotation Zrotation
												JOINT RightHandRing3
												{
													OFFSET -3.362106 0.000000 0.000000
													CHANNELS 3 Xrotation Yrotation Zrotation
													JOINT RightHandRing4
													{
														OFFSET -2.076401 0.000000 0.000000
														CHANNELS 3 Xrotation Yrotation Zrotation
														End Site
														{
															OFFSET 0.000000 0.000000 0.000000
														}
													}
												}
											}
										}
									}
								}
							}
						}
					}
				}
			}
		}
	}
	JOINT LeftUpLeg
	{
		OFFSET 10.205400 -3.823500 0.155100
		CHANNELS 3 Xrotation Yrotation Zrotation
		JOINT LeftLeg
		{
			OFFSET 0.708757 -12.982077 0.567790
			CHANNELS 3 Xrotation Yrotation Zrotation
			JOINT LeftFoot
			{
				OFFSET -0.708756 -10.717838 -2.184338
				CHANNELS 3 Xrotation Yrotation Zrotation
				JOINT LeftToeBase
				{
					OFFSET 0.108149 -7.191104 7.560241
					CHANNELS 3 Xrotation Yrotation Zrotation
					JOINT LeftToe_End
					{
						OFFSET 0.070230 0.081724 4.490308
						CHANNELS 3 Xrotation Yrotation Zrotation
						End Site
						{
							OFFSET 0.000000 0.000000 0.000000
						}
					}
				}
			}
		}
	}
	JOINT RightUpLeg
	{
		OFFSET -10.205400 -3.823500 0.005500
		CHANNELS 3 Xrotation Yrotation Zrotation
		JOINT RightLeg
		{
			OFFSET -0.708756 -12.982134 0.610632
			CHANNELS 3 Xrotation Yrotation Zrotation
			JOINT RightFoot
			{
				OFFSET 0.708754 -10.717769 -1.945823
				CHANNELS 3 Xrotation Yrotation Zrotation
				JOINT RightToeBase
				{
					OFFSET -0.108140 -7.191069 7.372968
					CHANNELS 3 Xrotation Yrotation Zrotation
					JOINT RightToe_End
					{
						OFFSET -0.070227 0.081735 4.479403
						CHANNELS 3 Xrotation Yrotation Zrotation
						End Site
						{
							OFFSET 0.000000 0.000000 0.000000
						}
					}
				}
			}
		}
	}
}
MOTION
Frames: 5
Frame Time: 0.016667
3.695378 32.394550 47.750305 23.876419 24.376486 -7.545130 11.222467 -0.777745 2.231645 6.688993 -2.739667 0.561832 0.000000 0.000000 0.000000 6.767286 -2.647712 0.806087 -7.061405 0.651895 3.401812 -21.911035 3.055704 1.503038 0.000001 -0.000000 0.000000 1.518838 -7.209061 -6.123064 0.000000 0.000000 0.000000 -29.320909 -21.016007 -35.448470 -0.000002 -29.544957 -0.000000 -8.273324 6.667491 0.376809 -4.818360 -0.388140 0.088360 7.450098 23.644293 2.310987 -5.513974 12.822073 16.414978 -0.000001 -0.000002 -0.000000 1.392518 -4.289626 -18.514956 0.313213 1.891576 -18.800951 0.005701 0.259011 -2.528363 0.000000 -0.000001 -0.000000 0.814276 5.226584 -29.279925 0.451087 2.256135 -22.609644 0.005070 0.243925 -2.380993 -0.000001 0.000000 0.000001 3.703734 9.279067 -35.643824 0.291083 1.825441 -18.119684 0.391947 2.108675 -21.057277 -0.000000 0.000000 -0.000001 2.382987 6.831227 2.707430 0.000000 0.000000 0.000000 -16.474823 -9.604011 53.071601 -0.000006 62.536597 0.000002 -3.641319 3.447580 -8.284695 -8.636245 11.618387 -0.482697 7.832915 -27.003884 -3.053126 -3.237858 -28.163860 -19.305134 0.000005 0.000001 -0.000002 9.241565 2.976991 1.678331 0.692447 -2.445340 31.616532 0.581281 -2.254944 28.905904 -0.000000 0.000001 0.000000 0.172073 -3.349963 13.232740 0.583244 -2.258525 28.956064 0.454354 -2.008165 25.494484 -0.000003 0.000002 0.000002 1.536042 -6.518376 24.725585 0.620953 -2.325317 29.898982 0.622262 -2.327583 29.931234 -0.000001 0.000001 0.000002 -34.179059 9.113164 9.594238 49.027026 6.675124 -5.921685 -16.393531 31.451426 -5.104209 -5.156765 0.553141 -6.099454 0.000000 0.000000 -0.000000 -53.819780 -3.390161 -6.896954 44.663871 -5.817122 -4.534286 -10.900125 -7.941002 7.346072 -0.776269 0.000006 0.000001 0.000000 0.000000 -0.000000 
3.810970 32.884968 48.527237 24.080199 25.231451 -7.812797 10.987829 -0.332929 2.159749 6.739190 -2.514402 0.541699 0.000000 0.000000 0.000000 6.813278 -2.447952 0.778878 -6.528691 0.281444 2.942684 -23.266326 1.506231 1.300734 0.000000 0.000001 -0.000000 1.571526 -7.049215 -6.199213 0.000000 0.000000 0.000000 -27.840556 -21.494291 -35.479486 0.000009 -28.581680 -0.000003 -5.965523 5.303745 -2.777232 -4.821607 -0.408749 0.104023 7.450100 23.644293 2.310979 -5.513975 12.822071 16.414975 0.000002 -0.000004 0.000001 1.410534 -4.236778 -19.058282 0.332469 1.947233 -19.376215 0.004582 0.232292 -2.267388 -0.000002 0.000000 -0.000000 0.825865 5.247074 -29.510485 0.442712 2.235970 -22.396276 0.001691 0.140383 -1.369976 0.000001 -0.000000 0.000000 3.686973 9.272163 -35.517574 0.258881 1.723907 -17.079335 0.330379 1.941343 -19.315246 -0.000000 0.000001 0.000002 2.412610 6.644263 2.840670 0.000000 0.000000 0.000000 -17.278015 -10.440139 53.740068 0.000045 64.466911 -0.000047 -4.319515 3.303178 -8.566011 -8.559277 11.392680 -0.383826 7.832917 -27.003884 -3.053121 -3.240556 -28.121521 -19.296726 0.000003 -0.000000 0.000001 9.265295 2.897269 4.050154 0.831881 -2.658381 34.747768 0.743574 -2.526434 32.795317 -0.000000 -0.000002 -0.000000 0.218729 -3.531508 15.536826 0.689729 -2.440930 31.552701 0.608811 -2.304078 29.598212 0.000002 0.000002 0.000002 1.695763 -6.638560 26.794605 0.720466 -2.490244 32.267289 0.744744 -2.528259 32.822051 -0.000001 0.000001 -0.000004 -35.637519 8.916707 8.660963 45.295800 6.733874 -5.935895 -12.763830 31.827039 -5.742142 -4.845837 0.460716 -5.592123 0.000000 -0.000001 0.000000 -49.652955 -3.946540 -6.542767 41.135245 -5.760591 -4.433805 -11.573763 -8.917651 7.035521 -0.776261 0.000007 0.000001 0.000000 -0.000000 0.000000 
3.934292 33.276447 49.279884 24.247812 26.125468 -8.098653 10.738816 0.128219 2.127917 6.787127 -2.287287 0.523221 0.000000 0.000000 0.000000 6.856932 -2.249075 0.744102 -6.145195 0.029316 2.502969 -24.587530 -0.208400 0.944950 0.000000 0.000001 -0.000000 1.618594 -6.835508 -6.264177 0.000000 0.000000 0.000000 -26.441488 -21.915712 -35.489639 -0.000016 -27.829493 -0.000021 -4.158947 3.707699 -5.268060 -4.822758 -0.415829 0.109416 7.450100 23.644296 2.310979 -5.513981 12.822078 16.414966 -0.000003 -0.000002 -0.000000 1.429688 -4.182428 -19.619251 0.359047 2.021273 -20.144839 0.004132 0.219658 -2.143955 0.000001 -0.000000 0.000000 0.838459 5.269151 -29.759363 0.446244 2.244499 -22.486520 0.000234 0.051791 -0.505370 0.000001 0.000000 0.000001 3.688282 9.275115 -35.508610 0.236548 1.649482 -16.320402 0.281210 1.794961 -17.806805 -0.000001 0.000002 0.000001 2.446342 6.435841 2.980762 0.000000 0.000000 0.000000 -17.981417 -11.167556 54.420591 0.000015 66.639512 -0.000026 -4.845005 3.164066 -9.542832 -8.466659 11.117455 -0.246916 7.832919 -27.003880 -3.053122 -3.242673 -28.088284 -19.290167 0.000000 -0.000000 0.000007 9.295346 2.878063 6.343589 0.977325 -2.856442 37.770331 0.917054 -2.776978 36.543486 0.000002 -0.000001 0.000003 0.270629 -3.704758 17.759740 0.799800 -2.611571 34.049948 0.757819 -2.548414 33.117422 0.000000 -0.000002 -0.000002 1.852717 -6.746802 28.783490 0.815904 -2.635195 34.401586 0.850287 -2.684683 35.142635 0.000000 0.000001 -0.000001 -36.845995 8.751658 7.933698 42.568669 7.381896 -6.119619 -10.445035 32.251614 -7.128117 -2.938058 0.187030 -3.586711 -0.000001 -0.000000 -0.000000 -45.755202 -4.611595 -6.198523 37.974042 -5.609231 -4.349887 -12.329420 -9.867406 6.714705 -0.776245 0.000004 -0.000004 0.000000 0.000000 0.000000 
4.079772 33.575054 49.974716 24.350905 27.055277 -8.428873 10.476633 0.602728 2.104665 6.831994 -2.056073 0.504971 0.000000 0.000000 0.000000 6.898571 -2.042589 0.728342 -5.916546 -0.334481 1.914450 -25.874869 -1.918017 0.673788 0.000002 -0.000000 -0.000000 1.646202 -6.617217 -6.320241 0.000000 0.000000 0.000000 -25.016652 -22.020555 -35.430233 -0.000003 -27.294805 -0.000015 -2.639175 2.137408 -7.461866 -4.821884 -0.409577 0.104686 7.450103 23.644293 2.310974 -5.513978 12.822075 16.414973 0.000001 -0.000000 -0.000002 1.449933 -4.126688 -20.196326 0.393216 2.111962 -21.091681 0.004090 0.219069 -2.138251 0.000002 0.000000 -0.000000 0.852125 5.292774 -30.026680 0.460301 2.278177 -22.843137 0.000029 -0.018552 0.181053 0.000000 -0.000000 -0.000001 3.705300 9.286616 -35.601828 0.223624 1.604725 -15.865440 0.243308 1.672438 -16.554242 0.000000 0.000001 -0.000004 2.483098 6.243172 3.110986 0.000000 0.000000 0.000000 -18.599625 -11.797041 55.140435 0.000006 68.895326 0.000007 -5.221353 2.918463 -10.687372 -8.360210 10.798188 -0.075882 7.832917 -27.003889 -3.053120 -3.244259 -28.063533 -19.285258 -0.000001 0.000003 -0.000003 9.320958 2.929890 8.482591 1.121874 -3.033585 40.583085 1.092423 -2.998884 40.023273 0.000000 0.000001 -0.000001 0.324908 -3.863874 19.826969 0.908250 -2.765122 36.361912 0.882573 -2.729910 35.825869 -0.000001 -0.000001 0.000000 2.000295 -6.840047 30.623488 0.900152 -2.754069 36.193319 0.924654 -2.787200 36.700222 0.000001 0.000001 -0.000001 -38.565611 8.540714 7.642753 40.022832 7.097860 -6.343179 -7.268892 32.313536 -9.230230 -1.742781 0.070266 -2.198311 -0.000000 -0.000001 0.000000 -42.085836 -5.377401 -5.852434 35.137058 -5.356520 -4.294719 -13.105330 -10.810491 6.425741 -0.776254 -0.000001 0.000001 0.000000 0.000000 -0.000000 
4.234646 33.754635 50.617035 24.383618 28.051099 -8.824844 10.200403 1.136826 2.110246 6.872417 -1.748169 0.478846 0.000000 0.000000 0.000000 6.935690 -1.762652 0.687620 -5.731394 -0.678797 1.445519 -27.121906 -3.844585 0.191413 0.000000 -0.000001 0.000001 1.650698 -6.391016 -6.371717 0.000000 0.000000 0.000000 -23.539736 -22.127409 -35.245432 0.000000 -27.532732 0.000007 -1.776693 1.126799 -9.768751 -4.819136 -0.391391 0.090882 7.450094 23.644286 2.310978 -5.513978 12.822077 16.414973 0.000001 -0.000002 -0.000000 1.471296 -4.069641 -20.788980 0.435228 2.217747 -22.203924 0.004525 0.230199 -2.246871 -0.000001 0.000000 0.000002 0.866895 5.318089 -30.313667 0.484636 2.335026 -23.447537 0.000415 -0.069103 0.674376 -0.000001 -0.000000 -0.000002 3.736992 9.305809 -35.791352 0.219526 1.590235 -15.718437 0.215663 1.576485 -15.578885 0.000001 -0.000001 -0.000001 2.521245 6.103419 3.214482 0.000000 0.000000 0.000000 -19.050603 -12.399770 55.928628 0.000022 71.237432 -0.000023 -4.849130 2.485272 -11.851620 -8.241832 10.440250 0.125337 7.832918 -27.003884 -3.053130 -3.245345 -28.046534 -19.281897 0.000000 0.000000 0.000005 9.330103 3.061020 10.391458 1.257613 -3.184966 43.085141 1.258892 -3.186326 43.107899 -0.000002 -0.000001 0.000003 0.377936 -4.003572 21.664052 1.009095 -2.896907 38.403101 0.963783 -2.838874 37.497561 -0.000003 0.000002 -0.000001 2.131523 -6.915978 32.246091 0.965594 -2.841242 37.534140 0.954138 -2.826286 37.302481 -0.000002 0.000001 -0.000002 -40.297406 8.337912 7.583858 38.193988 6.803944 -6.589089 -4.208678 32.400860 -11.313711 -2.894559 -0.042648 1.171546 -0.000000 -0.000001 0.000000 -38.805170 -6.273095 -5.480740 33.036023 -5.122712 -4.287632 -14.148406 -11.665768 6.204598 -0.776261 0.000001 0.000002 0.000000 -0.000000 0.000000 
